<?xml version="1.0" encoding="utf-8"?>
<!-- Generator: Adobe Illustrator 22.1.0, SVG Export Plug-In . SVG Version: 6.00 Build 0)  -->
<svg version="1.1" id="Layer_1" xmlns="http://www.w3.org/2000/svg" xmlns:xlink="http://www.w3.org/1999/xlink" x="0px" y="0px"
	 viewBox="0 0 64 64" style="enable-background:new 0 0 64 64;" xml:space="preserve">
<style type="text/css">
	.st0{fill:#FFFFFF;}
	.st1{fill:none;}
</style>
<path class="st0" d="M44.5,25.7V12.8C44.5,5.7,38.8,0,31.7,0h0c-7.1,0-12.8,5.7-12.8,12.8v12.8H9.7v38h44v-38H44.5z M35.4,53.1
	c0,2-1.6,3.7-3.7,3.7h0c-2,0-3.7-1.6-3.7-3.7v-8.4c0-2,1.6-3.7,3.7-3.7h0c2,0,3.7,1.6,3.7,3.7V53.1z M38.5,25.7H24.9V12.8
	c0-3.8,3.1-6.8,6.8-6.8s6.8,3.1,6.8,6.8V25.7z"/>
<rect x="0" y="0" class="st1" width="64" height="64"/>
</svg>
